# This file uses centimeters as units for non-parametric coordinates.

mtllib BackDrop.mtl
g default
v -0.222474 -0.015344 2.207224
v -0.531818 -0.002120 2.207362
v -0.815721 0.146822 2.207994
v -1.046696 0.341247 2.210018
v -1.202504 0.601897 2.212731
v -1.268175 0.903257 2.215867
v -1.269914 1.215830 2.219121
v -0.222474 0.030808 -2.226895
v -0.531818 0.044032 -2.226758
v -0.815721 0.192974 -2.226125
v -1.046696 0.387399 -2.224100
v -1.202504 0.648048 -2.221389
v -1.268175 0.949409 -2.218252
v -1.269914 1.261982 -2.214998
v 2.668850 -0.006298 2.205566
v 2.668850 0.039854 -2.228553
v -1.275440 2.643426 2.229459
v -1.275440 2.689578 -2.204660
v -1.275440 3.121659 0.773088
v -1.269914 1.232480 0.762750
v -1.268175 0.919907 0.759496
v -1.202504 0.618546 0.756359
v -1.046696 0.357897 0.753647
v -0.815721 0.163472 0.751623
v -0.531818 0.014530 0.750990
v -0.222474 0.001306 0.750853
v 2.668850 0.010352 0.749195
v -1.275440 3.134192 -0.731478
v -1.269914 1.245013 -0.741816
v -1.268175 0.932440 -0.745070
v -1.202504 0.631079 -0.748207
v -1.046696 0.370430 -0.750919
v -0.815721 0.176005 -0.752943
v -0.531818 0.027063 -0.753576
v -0.222474 0.013839 -0.753713
v 2.668850 0.022885 -0.755371
vt 0.462500 0.312500
vt 0.462500 0.688440
vt 0.475000 0.688440
vt 0.475000 0.312500
vt 0.487500 0.688440
vt 0.487500 0.312500
vt 0.500000 0.688440
vt 0.500000 0.312500
vt 0.512500 0.688440
vt 0.512500 0.312500
vt 0.525000 0.688440
vt 0.525000 0.312500
vt 0.537500 0.688440
vt 0.537500 0.312500
vt 0.000000 0.000000
vt 0.000000 1.000000
vt 1.000000 1.000000
vt 1.000000 0.000000
vt 0.000000 0.000000
vt 0.000000 1.000000
vt 1.000000 1.000000
vt 1.000000 0.000000
vt 0.639242 1.000000
vt 0.537500 0.448123
vt 0.639242 0.000000
vt 0.525000 0.448123
vt 0.512500 0.448123
vt 0.500000 0.448123
vt 0.487500 0.448123
vt 0.475000 0.448123
vt 0.462500 0.448123
vt 0.360758 0.000000
vt 0.360758 1.000000
vt 0.367679 1.000000
vt 0.537500 0.550215
vt 0.367679 0.000000
vt 0.525000 0.550215
vt 0.512500 0.550215
vt 0.500000 0.550215
vt 0.487500 0.550215
vt 0.475000 0.550215
vt 0.462500 0.550215
vt 0.632321 0.000000
vt 0.632321 1.000000
vn 0.042712 0.999038 0.009898
vn 0.001311 0.999945 0.010408
vn 0.263768 0.964534 0.010039
vn 0.042712 0.999038 0.009898
vn 0.464570 0.885493 0.008771
vn 0.263768 0.964534 0.010039
vn 0.554876 0.831888 0.008659
vn 0.464570 0.885493 0.008775
vn 0.644001 0.764988 0.007579
vn 0.554876 0.831888 0.008659
vn 0.761982 0.647564 0.006740
vn 0.644001 0.764988 0.007579
vn 0.858349 0.513041 0.005083
vn 0.761982 0.647564 0.006740
vn 0.930370 0.366603 0.003816
vn 0.858349 0.513041 0.005083
vn 0.977073 0.212896 0.002109
vn 0.930370 0.366603 0.003816
vn 0.994027 0.109133 0.001136
vn 0.977073 0.212896 0.002109
vn 0.999985 0.005563 0.000055
vn 0.994027 0.109133 0.001136
vn 0.999991 0.004174 0.000043
vn 0.999985 0.005563 0.000055
vn -0.003123 0.999946 0.009906
vn -0.003123 0.999946 0.009908
vn -0.003123 0.999941 0.010408
vn 0.001311 0.999945 0.010408
vn 0.999991 0.004174 0.000043
vn 0.999993 0.003870 0.000040
vn 0.999995 0.003093 -0.000184
vn 0.999995 0.003114 -0.000210
vn 0.999995 0.003111 0.000274
vn 0.999995 0.003088 0.000244
vn 0.999993 0.003870 0.000040
vn 0.999991 0.004175 0.000043
vn 0.994027 0.109133 0.001136
vn 0.999985 0.005563 0.000055
vn 0.999985 0.005563 0.000055
vn 0.999991 0.004175 0.000043
vn 0.930370 0.366603 0.003816
vn 0.977073 0.212897 0.002098
vn 0.977072 0.212897 0.002098
vn 0.994027 0.109133 0.001136
vn 0.761982 0.647564 0.006740
vn 0.858349 0.513041 0.005056
vn 0.858349 0.513041 0.005057
vn 0.930370 0.366603 0.003816
vn 0.554802 0.831938 0.008659
vn 0.644001 0.764988 0.007539
vn 0.644001 0.764988 0.007540
vn 0.761982 0.647564 0.006740
vn 0.263591 0.964582 0.010040
vn 0.464570 0.885494 0.008730
vn 0.464570 0.885494 0.008725
vn 0.554802 0.831938 0.008659
vn 0.001312 0.999945 0.010408
vn 0.042712 0.999039 0.009846
vn 0.042712 0.999039 0.009847
vn 0.263591 0.964582 0.010040
vn 0.001312 0.999945 0.010408
vn -0.003123 0.999941 0.010408
vn -0.003123 0.999947 0.009855
vn -0.003123 0.999947 0.009856
s 1
g pCylinder1
usemtl initialShadingGroup
f 35/42/1 8/2/2 9/3/3 34/41/4
s 2
f 34/41/5 9/3/6 10/5/7 33/40/8
s 3
f 33/40/9 10/5/10 11/7/11 32/39/12
s 4
f 32/39/13 11/7/14 12/9/15 31/38/16
s 5
f 31/38/17 12/9/18 13/11/19 30/37/20
s 6
f 30/37/21 13/11/22 14/13/23 29/35/24
s 7
f 35/43/25 36/44/26 16/17/27 8/18/28
s 8
f 14/19/29 18/20/30 28/34/31 29/36/32
f 20/25/33 19/23/34 17/21/35 7/22/36
s 6
f 6/12/37 21/26/38 20/24/39 7/14/40
s 5
f 5/10/41 22/27/42 21/26/43 6/12/44
s 4
f 4/8/45 23/28/46 22/27/47 5/10/48
s 3
f 3/6/49 24/29/50 23/28/51 4/8/52
s 2
f 2/4/53 25/30/54 24/29/55 3/6/56
s 1
f 1/1/57 26/31/58 25/30/59 2/4/60
s 7
f 1/15/61 15/16/62 27/33/63 26/32/64
s 8
f 29/36/32 28/34/31 19/23/34 20/25/33
s 6
f 21/26/38 30/37/21 29/35/24 20/24/39
s 5
f 22/27/42 31/38/17 30/37/20 21/26/43
s 4
f 23/28/46 32/39/13 31/38/16 22/27/47
s 3
f 24/29/50 33/40/9 32/39/12 23/28/51
s 2
f 25/30/54 34/41/5 33/40/8 24/29/55
s 1
f 26/31/58 35/42/1 34/41/4 25/30/59
s 7
f 26/32/64 27/33/63 36/44/26 35/43/25
