# This file uses centimeters as units for non-parametric coordinates.

mtllib BackDrop.mtl
g default
v -0.222474 -0.015344 2.207224
v -0.531818 -0.002120 2.207362
v -0.815721 0.146822 2.207994
v -1.046696 0.341247 2.210018
v -1.202504 0.601897 2.212731
v -1.268175 0.903257 2.215867
v -1.269914 1.215830 2.219121
v -0.222474 0.030808 -2.226895
v -0.531818 0.044032 -2.226758
v -0.815721 0.192974 -2.226125
v -1.046696 0.387399 -2.224100
v -1.202504 0.648048 -2.221389
v -1.268175 0.949409 -2.218252
v -1.269914 1.261982 -2.214998
v 2.668850 -0.006298 2.205566
v 2.668850 0.039854 -2.228553
v -1.275440 2.643426 2.229459
v -1.275440 2.689578 -2.204660
vt 0.462500 0.312500
vt 0.475000 0.312500
vt 0.487500 0.312500
vt 0.500000 0.312500
vt 0.512500 0.312500
vt 0.525000 0.312500
vt 0.537500 0.312500
vt 0.462500 0.688440
vt 0.475000 0.688440
vt 0.487500 0.688440
vt 0.500000 0.688440
vt 0.512500 0.688440
vt 0.525000 0.688440
vt 0.537500 0.688440
vt 0.000000 0.000000
vt 1.000000 0.000000
vt 1.000000 1.000000
vt 0.000000 1.000000
vt 0.000000 0.000000
vt 1.000000 0.000000
vt 1.000000 1.000000
vt 0.000000 1.000000
vn 0.001312 0.999945 0.010408
vn 0.001311 0.999945 0.010408
vn 0.263768 0.964534 0.010039
vn 0.263591 0.964582 0.010040
vn 0.554876 0.831888 0.008659
vn 0.554802 0.831938 0.008659
vn 0.761982 0.647564 0.006740
vn 0.761982 0.647564 0.006740
vn 0.930370 0.366603 0.003816
vn 0.930370 0.366603 0.003816
vn 0.994027 0.109133 0.001136
vn 0.994027 0.109133 0.001136
vn 0.999991 0.004174 0.000043
vn 0.999991 0.004175 0.000043
vn -0.003123 0.999941 0.010408
vn -0.003123 0.999941 0.010408
vn 0.999993 0.003870 0.000040
vn 0.999993 0.003870 0.000040
s 1
g pCylinder1
usemtl initialShadingGroup
f 1/1/1 8/8/2 9/9/3 2/2/4
f 2/2/4 9/9/3 10/10/5 3/3/6
f 3/3/6 10/10/5 11/11/7 4/4/8
f 4/4/8 11/11/7 12/12/9 5/5/10
f 5/5/10 12/12/9 13/13/11 6/6/12
f 6/6/12 13/13/11 14/14/13 7/7/14
f 1/15/1 15/18/15 16/17/16 8/16/2
f 14/19/13 18/22/17 17/21/18 7/20/14
